{
  "accessors": [
    {
      "bufferView": 2,
      "componentType": 5126,
      "count": 29327,
      "max": [
        0.82552999258041382,
        1.8172199726104736,
        0.53361999988555908
      ],
      "min": [
        -0.82552999258041382,
        -1.5675499439239502,
        -0.4133400022983551
      ],
      "type": "VEC3"
    },
    {
      "bufferView": 2,
      "byteOffset": 351924,
      "componentType": 5126,
      "count": 29327,
      "max": [
        0.99996656179428101,
        1,
        1
      ],
      "min": [
        -0.99996656179428101,
        -1,
        -1
      ],
      "type": "VEC3"
    },
    {
      "bufferView": 3,
      "componentType": 5126,
      "count": 29327,
      "max": [
        1,
        0.9998888373374939,
        1,
        1
      ],
      "min": [
        -1,
        -0.99998098611831665,
        -1,
        -1
      ],
      "type": "VEC4"
    },
    {
      "bufferView": 2,
      "byteOffset": 703848,
      "componentType": 5126,
      "count": 29327,
      "max": [
        1,
        1,
        1
      ],
      "min": [
        0,
        0,
        0
      ],
      "type": "VEC3"
    },
    {
      "bufferView": 1,
      "componentType": 5126,
      "count": 29327,
      "max": [
        0.98010998964309692,
        0.98316997289657593
      ],
      "min": [
        0.026779999956488609,
        0.012090000323951244
      ],
      "type": "VEC2"
    },
    {
      "bufferView": 0,
      "componentType": 5125,
      "count": 92763,
      "max": [
        29326
      ],
      "min": [
        0
      ],
      "type": "SCALAR"
    },
    {
      "bufferView": 2,
      "byteOffset": 1055772,
      "componentType": 5126,
      "count": 2893,
      "max": [
        0.80817997455596924,
        1.8265899419784546,
        0.53242999315261841
      ],
      "min": [
        -0.80817997455596924,
        -1.5266100168228149,
        -0.34652000665664673
      ],
      "type": "VEC3"
    },
    {
      "bufferView": 2,
      "byteOffset": 1090488,
      "componentType": 5126,
      "count": 2893,
      "max": [
        0.99576491117477417,
        0.99962872266769409,
        0.99994522333145142
      ],
      "min": [
        -0.99576491117477417,
        -1,
        -0.98417007923126221
      ],
      "type": "VEC3"
    },
    {
      "bufferView": 3,
      "byteOffset": 469232,
      "componentType": 5126,
      "count": 2893,
      "max": [
        1,
        0.99961352348327637,
        0.92216873168945312,
        1
      ],
      "min": [
        -1,
        -0.99961352348327637,
        -0.9999808669090271,
        -1
      ],
      "type": "VEC4"
    },
    {
      "bufferView": 2,
      "byteOffset": 1125204,
      "componentType": 5126,
      "count": 2893,
      "max": [
        1,
        1,
        1
      ],
      "min": [
        0.99607843160629272,
        0.99607843160629272,
        0.99607843160629272
      ],
      "type": "VEC3"
    },
    {
      "bufferView": 1,
      "byteOffset": 234616,
      "componentType": 5126,
      "count": 2893,
      "max": [
        0.89412999153137207,
        0.88349997997283936
      ],
      "min": [
        0.44843998551368713,
        0.28294000029563904
      ],
      "type": "VEC2"
    },
    {
      "bufferView": 0,
      "byteOffset": 371052,
      "componentType": 5125,
      "count": 10848,
      "max": [
        2892
      ],
      "min": [
        0
      ],
      "type": "SCALAR"
    },
    {
      "bufferView": 2,
      "byteOffset": 1159920,
      "componentType": 5126,
      "count": 4,
      "max": [
        1,
        1,
        0
      ],
      "min": [
        -1,
        -1,
        0
      ],
      "type": "VEC3"
    },
    {
      "bufferView": 2,
      "byteOffset": 1159968,
      "componentType": 5126,
      "count": 4,
      "max": [
        0,
        0,
        1
      ],
      "min": [
        0,
        0,
        1
      ],
      "type": "VEC3"
    },
    {
      "bufferView": 3,
      "byteOffset": 515520,
      "componentType": 5126,
      "count": 4,
      "max": [
        1,
        0,
        0,
        1
      ],
      "min": [
        1,
        0,
        0,
        1
      ],
      "type": "VEC4"
    },
    {
      "bufferView": 1,
      "byteOffset": 257760,
      "componentType": 5126,
      "count": 4,
      "max": [
        1,
        1
      ],
      "min": [
        0,
        0
      ],
      "type": "VEC2"
    },
    {
      "bufferView": 0,
      "byteOffset": 414444,
      "componentType": 5125,
      "count": 6,
      "max": [
        3
      ],
      "min": [
        0
      ],
      "type": "SCALAR"
    }
  ],
  "asset": {
    "extras": {
      "author": "KMiklas (https://sketchfab.com/karolmiklas)",
      "license": "CC-BY-NC-ND-4.0 (http://creativecommons.org/licenses/by-nc-nd/4.0/)",
      "source": "https://sketchfab.com/models/oFfjKlslHqXgtKdKqEtpffmSv6h",
      "title": "Merc"
    },
    "generator": "Sketchfab-3.19.6",
    "version": "2.0"
  },
  "bufferViews": [
    {
      "buffer": 0,
      "byteLength": 414468,
      "byteOffset": 0,
      "name": "floatBufferViews",
      "target": 34963
    },
    {
      "buffer": 0,
      "byteLength": 257792,
      "byteOffset": 414468,
      "byteStride": 8,
      "name": "floatBufferViews",
      "target": 34962
    },
    {
      "buffer": 0,
      "byteLength": 1160016,
      "byteOffset": 672260,
      "byteStride": 12,
      "name": "floatBufferViews",
      "target": 34962
    },
    {
      "buffer": 0,
      "byteLength": 515584,
      "byteOffset": 1832276,
      "byteStride": 16,
      "name": "floatBufferViews",
      "target": 34962
    }
  ],
  "buffers": [
    {
      "byteLength": 2347860,
      "uri": "scene.bin"
    }
  ],
  "extensionsRequired": [
    "KHR_materials_pbrSpecularGlossiness"
  ],
  "extensionsUsed": [
    "KHR_materials_pbrSpecularGlossiness"
  ],
  "images": [
    {
      "uri": "https://raw.githubusercontent.com/thomas-schweich/dfaw/master/merc/textures/Material_light_emissive.jpeg"
    },
    {
      "uri": "https://raw.githubusercontent.com/thomas-schweich/dfaw/master/merc/textures/Material_light_diffuse.jpeg"
    },
    {
      "uri": "https://raw.githubusercontent.com/thomas-schweich/dfaw/master/merc/textures/Material_light_normal.png"
    },
    {
      "uri": "https://raw.githubusercontent.com/thomas-schweich/dfaw/master/merc/textures/Material.001_diffuse.png"
    },
    {
      "uri": "https://raw.githubusercontent.com/thomas-schweich/dfaw/master/merc/textures/Material.001_specularGlossiness.png"
    },
    {
      "uri": "https://raw.githubusercontent.com/thomas-schweich/dfaw/master/merc/textures/Material.001_normal.png"
    },
    {
      "uri": "https://raw.githubusercontent.com/thomas-schweich/dfaw/master/merc/textures/Plane_0_diffuse.png"
    }
  ],
  "materials": [
    {
      "alphaMode": "BLEND",
      "doubleSided": true,
      "emissiveFactor": [
        0,
        0,
        0
      ],
      "extensions": {
        "KHR_materials_pbrSpecularGlossiness": {
          "diffuseFactor": [
            0,
            0,
            0,
            0.93121189019999995
          ],
          "diffuseTexture": {
            "index": 6,
            "texCoord": 0
          },
          "glossinessFactor": 0,
          "specularFactor": [
            0,
            0,
            0
          ]
        }
      },
      "name": "Plane_0"
    },
    {
      "doubleSided": true,
      "emissiveFactor": [
        0,
        0,
        0
      ],
      "extensions": {
        "KHR_materials_pbrSpecularGlossiness": {
          "diffuseFactor": [
            0.70999999999999996,
            0.70999999999999996,
            0.70999999999999996,
            1
          ],
          "diffuseTexture": {
            "index": 3,
            "texCoord": 0
          },
          "glossinessFactor": 1,
          "specularFactor": [
            0.14999999999999999,
            0.14999999999999999,
            0.14999999999999999
          ],
          "specularGlossinessTexture": {
            "index": 4,
            "texCoord": 0
          }
        }
      },
      "name": "Material.001",
      "normalTexture": {
        "index": 5,
        "scale": 0.47999999999999998,
        "texCoord": 0
      }
    },
    {
      "doubleSided": true,
      "emissiveFactor": [
        1,
        1,
        1
      ],
      "emissiveTexture": {
        "index": 0,
        "texCoord": 0
      },
      "extensions": {
        "KHR_materials_pbrSpecularGlossiness": {
          "diffuseFactor": [
            1,
            1,
            1,
            1
          ],
          "diffuseTexture": {
            "index": 1,
            "texCoord": 0
          },
          "glossinessFactor": 0.56000000000000005,
          "specularFactor": [
            0.050000000000000003,
            0.050000000000000003,
            0.050000000000000003
          ]
        }
      },
      "name": "Material_light",
      "normalTexture": {
        "index": 2,
        "scale": 0.40000000000000002,
        "texCoord": 0
      }
    }
  ],
  "meshes": [
    {
      "name": "Plane.006_0",
      "primitives": [
        {
          "attributes": {
            "COLOR_0": 3,
            "NORMAL": 1,
            "POSITION": 0,
            "TANGENT": 2,
            "TEXCOORD_0": 4
          },
          "indices": 5,
          "material": 1,
          "mode": 4
        }
      ]
    },
    {
      "name": "Plane.006_1",
      "primitives": [
        {
          "attributes": {
            "COLOR_0": 9,
            "NORMAL": 7,
            "POSITION": 6,
            "TANGENT": 8,
            "TEXCOORD_0": 10
          },
          "indices": 11,
          "material": 2,
          "mode": 4
        }
      ]
    },
    {
      "name": "Plane_0",
      "primitives": [
        {
          "attributes": {
            "NORMAL": 13,
            "POSITION": 12,
            "TANGENT": 14,
            "TEXCOORD_0": 15
          },
          "indices": 16,
          "material": 0,
          "mode": 4
        }
      ]
    }
  ],
  "nodes": [
    {
      "children": [
        1
      ],
      "name": "RootNode (gltf orientation matrix)",
      "rotation": [
        -0.70710678118654746,
        -0,
        -0,
        0.70710678118654757
      ]
    },
    {
      "children": [
        2
      ],
      "matrix": [
        0.0028177942149341106,
        -0.99648308753967285,
        -0.083746612071990967,
        0,
        0.99943441152572632,
        0,
        0.033627636730670929,
        0,
        -0.033509369939565659,
        -0.083794005215167999,
        0.99591952562332153,
        0,
        -0.00081436062464490533,
        -0.0020468272268772125,
        -9.9428201792761683e-05,
        1
      ],
      "name": "RootNode (model correction matrix)"
    },
    {
      "children": [
        3,
        6
      ],
      "name": "Root"
    },
    {
      "children": [
        4,
        5
      ],
      "name": "Plane.006"
    },
    {
      "mesh": 0,
      "name": "Plane.006_0"
    },
    {
      "mesh": 1,
      "name": "Plane.006_1"
    },
    {
      "children": [
        7
      ],
      "matrix": [
        1.1870100000000001,
        0,
        0,
        0,
        0,
        2,
        0,
        0,
        0,
        0,
        1,
        0,
        0,
        0,
        -0.58230999999999999,
        1
      ],
      "name": "Plane"
    },
    {
      "mesh": 2,
      "name": "Plane_0"
    }
  ],
  "samplers": [
    {
      "magFilter": 9729,
      "minFilter": 9987,
      "wrapS": 10497,
      "wrapT": 10497
    }
  ],
  "scene": 0,
  "scenes": [
    {
      "name": "OSG_Scene",
      "nodes": [
        0
      ]
    }
  ],
  "textures": [
    {
      "sampler": 0,
      "source": 0
    },
    {
      "sampler": 0,
      "source": 1
    },
    {
      "sampler": 0,
      "source": 2
    },
    {
      "sampler": 0,
      "source": 3
    },
    {
      "sampler": 0,
      "source": 4
    },
    {
      "sampler": 0,
      "source": 5
    },
    {
      "sampler": 0,
      "source": 6
    }
  ]
}

